<?xml version="1.0" encoding="UTF-8" standalone="no"?>
<!-- Created with Inkscape (http://www.inkscape.org/) -->

<svg
   version="1.1"
   id="svg1"
   width="2640"
   height="1440"
   viewBox="0 0 2640 1440"
   xml:space="preserve"
   xmlns:xlink="http://www.w3.org/1999/xlink"
   xmlns="http://www.w3.org/2000/svg"
   xmlns:svg="http://www.w3.org/2000/svg"><defs
     id="defs1"><linearGradient
       x1="0"
       y1="0"
       x2="1"
       y2="0"
       gradientUnits="userSpaceOnUse"
       gradientTransform="matrix(475.94796,0,0,475.94796,595.46,565.6269)"
       spreadMethod="pad"
       id="linearGradient3"><stop
         style="stop-opacity:1;stop-color:#6fcace"
         offset="0"
         id="stop1" /><stop
         style="stop-opacity:1;stop-color:#1bbdd5"
         offset="0.221721"
         id="stop2" /><stop
         style="stop-opacity:1;stop-color:#1bbdd5"
         offset="1"
         id="stop3" /></linearGradient><linearGradient
       x1="0"
       y1="0"
       x2="1"
       y2="0"
       gradientUnits="userSpaceOnUse"
       gradientTransform="matrix(164.28946,0,0,164.28946,400.29369,729.88536)"
       spreadMethod="pad"
       id="linearGradient6"><stop
         style="stop-opacity:1;stop-color:#aedcd1"
         offset="0"
         id="stop4" /><stop
         style="stop-opacity:1;stop-color:#12a6bb"
         offset="0.221721"
         id="stop5" /><stop
         style="stop-opacity:1;stop-color:#12a6bb"
         offset="1"
         id="stop6" /></linearGradient><linearGradient
       x1="0"
       y1="0"
       x2="1"
       y2="0"
       gradientUnits="userSpaceOnUse"
       gradientTransform="matrix(328.57891,0,0,328.57891,236.00423,745.84375)"
       spreadMethod="pad"
       id="linearGradient9"><stop
         style="stop-opacity:1;stop-color:#aedcd1"
         offset="0"
         id="stop7" /><stop
         style="stop-opacity:1;stop-color:#12a6bb"
         offset="0.221721"
         id="stop8" /><stop
         style="stop-opacity:1;stop-color:#12a6bb"
         offset="1"
         id="stop9" /></linearGradient><linearGradient
       x1="0"
       y1="0"
       x2="1"
       y2="0"
       gradientUnits="userSpaceOnUse"
       gradientTransform="matrix(164.28946,0,0,-164.28946,400.29369,697.964)"
       spreadMethod="pad"
       id="linearGradient12"><stop
         style="stop-opacity:1;stop-color:#aedcd1"
         offset="0"
         id="stop10" /><stop
         style="stop-opacity:1;stop-color:#1bbdd5"
         offset="0.221721"
         id="stop11" /><stop
         style="stop-opacity:1;stop-color:#1bbdd5"
         offset="1"
         id="stop12" /></linearGradient><linearGradient
       x1="0"
       y1="0"
       x2="1"
       y2="0"
       gradientUnits="userSpaceOnUse"
       gradientTransform="matrix(328.57891,0,0,-328.57891,236.00423,682.00559)"
       spreadMethod="pad"
       id="linearGradient15"><stop
         style="stop-opacity:1;stop-color:#aedcd1"
         offset="0"
         id="stop13" /><stop
         style="stop-opacity:1;stop-color:#1bbdd5"
         offset="0.221721"
         id="stop14" /><stop
         style="stop-opacity:1;stop-color:#1bbdd5"
         offset="1"
         id="stop15" /></linearGradient><linearGradient
       x1="0"
       y1="0"
       x2="1"
       y2="0"
       gradientUnits="userSpaceOnUse"
       gradientTransform="matrix(164.28946,0,0,164.28946,400.29369,382.03603)"
       spreadMethod="pad"
       id="linearGradient18"><stop
         style="stop-opacity:1;stop-color:#aedcd1"
         offset="0"
         id="stop16" /><stop
         style="stop-opacity:1;stop-color:#12a6bb"
         offset="0.221721"
         id="stop17" /><stop
         style="stop-opacity:1;stop-color:#12a6bb"
         offset="1"
         id="stop18" /></linearGradient><linearGradient
       x1="0"
       y1="0"
       x2="1"
       y2="0"
       gradientUnits="userSpaceOnUse"
       gradientTransform="matrix(328.57891,0,0,328.57891,236.00423,397.99447)"
       spreadMethod="pad"
       id="linearGradient21"><stop
         style="stop-opacity:1;stop-color:#aedcd1"
         offset="0"
         id="stop19" /><stop
         style="stop-opacity:1;stop-color:#12a6bb"
         offset="0.221721"
         id="stop20" /><stop
         style="stop-opacity:1;stop-color:#12a6bb"
         offset="1"
         id="stop21" /></linearGradient><linearGradient
       x1="0"
       y1="0"
       x2="1"
       y2="0"
       gradientUnits="userSpaceOnUse"
       gradientTransform="matrix(164.28946,0,0,-164.28946,400.29369,350.11464)"
       spreadMethod="pad"
       id="linearGradient24"><stop
         style="stop-opacity:1;stop-color:#aedcd1"
         offset="0"
         id="stop22" /><stop
         style="stop-opacity:1;stop-color:#1bbdd5"
         offset="0.221721"
         id="stop23" /><stop
         style="stop-opacity:1;stop-color:#1bbdd5"
         offset="1"
         id="stop24" /></linearGradient><linearGradient
       x1="0"
       y1="0"
       x2="1"
       y2="0"
       gradientUnits="userSpaceOnUse"
       gradientTransform="matrix(328.57891,0,0,-328.57891,236.00423,334.15627)"
       spreadMethod="pad"
       id="linearGradient27"><stop
         style="stop-opacity:1;stop-color:#aedcd1"
         offset="0"
         id="stop25" /><stop
         style="stop-opacity:1;stop-color:#1bbdd5"
         offset="0.221721"
         id="stop26" /><stop
         style="stop-opacity:1;stop-color:#1bbdd5"
         offset="1"
         id="stop27" /></linearGradient><linearGradient
       x1="0"
       y1="0"
       x2="1"
       y2="0"
       gradientUnits="userSpaceOnUse"
       gradientTransform="matrix(50.182296,0,0,50.182296,400.29369,539.21394)"
       spreadMethod="pad"
       id="linearGradient31"><stop
         style="stop-opacity:1;stop-color:#847b9f"
         offset="0"
         id="stop28" /><stop
         style="stop-opacity:1;stop-color:#847b9f"
         offset="0.273743"
         id="stop29" /><stop
         style="stop-opacity:1;stop-color:#847b9f"
         offset="0.370612"
         id="stop30" /><stop
         style="stop-opacity:1;stop-color:#a294c6"
         offset="1"
         id="stop31" /></linearGradient><linearGradient
       x1="0"
       y1="0"
       x2="1"
       y2="0"
       gradientUnits="userSpaceOnUse"
       gradientTransform="matrix(31.916798,0,0,31.916798,224.67067,457.06922)"
       spreadMethod="pad"
       id="linearGradient34"><stop
         style="stop-opacity:1;stop-color:#847b9f"
         offset="0"
         id="stop32" /><stop
         style="stop-opacity:1;stop-color:#a294c6"
         offset="0.221721"
         id="stop33" /><stop
         style="stop-opacity:1;stop-color:#a294c6"
         offset="1"
         id="stop34" /></linearGradient><linearGradient
       x1="0"
       y1="0"
       x2="1"
       y2="0"
       gradientUnits="userSpaceOnUse"
       gradientTransform="matrix(63.833597,0,0,63.833597,224.67067,539.21394)"
       spreadMethod="pad"
       id="linearGradient37"><stop
         style="stop-opacity:1;stop-color:#847b9f"
         offset="0"
         id="stop35" /><stop
         style="stop-opacity:1;stop-color:#a294c6"
         offset="0.221721"
         id="stop36" /><stop
         style="stop-opacity:1;stop-color:#a294c6"
         offset="1"
         id="stop37" /></linearGradient><linearGradient
       x1="0"
       y1="0"
       x2="1"
       y2="0"
       gradientUnits="userSpaceOnUse"
       gradientTransform="matrix(82.144725,-82.144725,-82.144725,-82.144725,183.59372,498.14161)"
       spreadMethod="pad"
       id="linearGradient40"><stop
         style="stop-opacity:1;stop-color:#9eb5de"
         offset="0"
         id="stop38" /><stop
         style="stop-opacity:1;stop-color:#a294c6"
         offset="0.221721"
         id="stop39" /><stop
         style="stop-opacity:1;stop-color:#a294c6"
         offset="1"
         id="stop40" /></linearGradient><linearGradient
       x1="0"
       y1="0"
       x2="1"
       y2="0"
       gradientUnits="userSpaceOnUse"
       gradientTransform="matrix(63.833597,0,0,-63.833597,160.8325,539.21394)"
       spreadMethod="pad"
       id="linearGradient43"><stop
         style="stop-opacity:1;stop-color:#9eb5de"
         offset="0"
         id="stop41" /><stop
         style="stop-opacity:1;stop-color:#a294c6"
         offset="0.221721"
         id="stop42" /><stop
         style="stop-opacity:1;stop-color:#a294c6"
         offset="1"
         id="stop43" /></linearGradient><linearGradient
       x1="0"
       y1="0"
       x2="1"
       y2="0"
       gradientUnits="userSpaceOnUse"
       gradientTransform="matrix(37.636729,0,0,37.636729,375.20254,514.12282)"
       spreadMethod="pad"
       id="linearGradient46"><stop
         style="stop-opacity:1;stop-color:#9eb5de"
         offset="0"
         id="stop44" /><stop
         style="stop-opacity:1;stop-color:#a294c6"
         offset="0.221721"
         id="stop45" /><stop
         style="stop-opacity:1;stop-color:#a294c6"
         offset="1"
         id="stop46" /></linearGradient><linearGradient
       x1="0"
       y1="0"
       x2="1"
       y2="0"
       gradientUnits="userSpaceOnUse"
       gradientTransform="matrix(75.273457,0,0,75.273458,350.11138,539.21394)"
       spreadMethod="pad"
       id="linearGradient49"><stop
         style="stop-opacity:1;stop-color:#9eb5de"
         offset="0"
         id="stop47" /><stop
         style="stop-opacity:1;stop-color:#a294c6"
         offset="0.221721"
         id="stop48" /><stop
         style="stop-opacity:1;stop-color:#a294c6"
         offset="1"
         id="stop49" /></linearGradient><style
       id="style1">
      .cls-1 {
        fill: url(#linear-gradient-8);
      }

      .cls-2 {
        fill: url(#linear-gradient-7);
      }

      .cls-3 {
        fill: url(#linear-gradient-5);
      }

      .cls-4 {
        fill: url(#linear-gradient-6);
      }

      .cls-5 {
        fill: url(#linear-gradient-9);
      }

      .cls-6 {
        fill: url(#linear-gradient-4);
      }

      .cls-7 {
        fill: url(#linear-gradient-3);
      }

      .cls-8 {
        fill: url(#linear-gradient-2);
      }

      .cls-9 {
        fill: url(#linear-gradient);
      }

      .cls-10 {
        fill: #a395c7;
      }

      .cls-11 {
        fill: url(#linear-gradient-10);
      }

      .cls-12 {
        fill: url(#linear-gradient-11);
      }

      .cls-13 {
        fill: url(#linear-gradient-12);
      }

      .cls-14 {
        fill: url(#linear-gradient-13);
      }

      .cls-15 {
        fill: url(#linear-gradient-14);
      }

      .cls-16 {
        fill: url(#linear-gradient-15);
      }

      .cls-17 {
        fill: url(#linear-gradient-16);
      }
    </style><linearGradient
       id="linear-gradient"
       x1="283.05"
       y1="171.53"
       x2="593.02"
       y2="171.53"
       gradientUnits="userSpaceOnUse"><stop
         offset="0"
         stop-color="#6fcacf"
         id="stop1-0" /><stop
         offset=".08"
         stop-color="#53c6d1"
         id="stop2-9" /><stop
         offset=".17"
         stop-color="#3dc3d2"
         id="stop3-4" /><stop
         offset=".27"
         stop-color="#2cc0d4"
         id="stop4-8" /><stop
         offset=".4"
         stop-color="#20bfd5"
         id="stop5-8" /><stop
         offset=".57"
         stop-color="#18bed5"
         id="stop6-2" /><stop
         offset="1"
         stop-color="#17bed6"
         id="stop7-4" /></linearGradient><linearGradient
       id="linear-gradient-2"
       x1="155.95"
       y1="278.51"
       x2="262.94"
       y2="278.51"
       gradientUnits="userSpaceOnUse"><stop
         offset="0"
         stop-color="#afddd1"
         id="stop8-5" /><stop
         offset=".05"
         stop-color="#8fd1cc"
         id="stop9-5" /><stop
         offset=".11"
         stop-color="#6fc6c8"
         id="stop10-1" /><stop
         offset=".18"
         stop-color="#53bcc4"
         id="stop11-7" /><stop
         offset=".26"
         stop-color="#3cb4c1"
         id="stop12-1" /><stop
         offset=".35"
         stop-color="#2baebe"
         id="stop13-1" /><stop
         offset=".47"
         stop-color="#1faabd"
         id="stop14-5" /><stop
         offset=".62"
         stop-color="#17a7bc"
         id="stop15-2" /><stop
         offset="1"
         stop-color="#16a7bc"
         id="stop16-7" /></linearGradient><linearGradient
       id="linear-gradient-3"
       x1="48.96"
       y1="288.9"
       y2="288.9"
       xlink:href="#linear-gradient-2" /><linearGradient
       id="linear-gradient-4"
       x1="155.95"
       y1="10461.98"
       x2="262.94"
       y2="10461.98"
       gradientTransform="translate(0 10719.69) scale(1 -1)"
       gradientUnits="userSpaceOnUse"><stop
         offset="0"
         stop-color="#afddd1"
         id="stop17-6" /><stop
         offset=".05"
         stop-color="#90d6d1"
         id="stop18-1" /><stop
         offset=".11"
         stop-color="#70d0d3"
         id="stop19-4" /><stop
         offset=".18"
         stop-color="#54cad3"
         id="stop20-2" /><stop
         offset=".26"
         stop-color="#3dc5d4"
         id="stop21-3" /><stop
         offset=".35"
         stop-color="#2cc2d5"
         id="stop22-2" /><stop
         offset=".47"
         stop-color="#20bfd5"
         id="stop23-2" /><stop
         offset=".62"
         stop-color="#18bed5"
         id="stop24-1" /><stop
         offset="1"
         stop-color="#17bed6"
         id="stop25-6" /></linearGradient><linearGradient
       id="linear-gradient-5"
       x1="48.96"
       y1="10472.37"
       y2="10472.37"
       xlink:href="#linear-gradient-4" /><linearGradient
       id="linear-gradient-6"
       y1="51.97"
       y2="51.97"
       xlink:href="#linear-gradient-2" /><linearGradient
       id="linear-gradient-7"
       x1="48.96"
       y1="62.36"
       y2="62.36"
       xlink:href="#linear-gradient-2" /><linearGradient
       id="linear-gradient-8"
       y1="10688.51"
       y2="10688.51"
       xlink:href="#linear-gradient-4" /><linearGradient
       id="linear-gradient-9"
       x1="48.96"
       y1="10698.91"
       y2="10698.91"
       xlink:href="#linear-gradient-4" /><linearGradient
       id="linear-gradient-10"
       x1="155.95"
       y1="154.33"
       x2="188.63"
       y2="154.33"
       gradientUnits="userSpaceOnUse"><stop
         offset=".27"
         stop-color="#857ba0"
         id="stop26-8" /><stop
         offset=".66"
         stop-color="#9387b2"
         id="stop27-5" /><stop
         offset="1"
         stop-color="#a395c7"
         id="stop28-7" /></linearGradient><linearGradient
       id="linear-gradient-11"
       x1="41.57"
       y1="100.83"
       x2="62.36"
       y2="100.83"
       gradientUnits="userSpaceOnUse"><stop
         offset="0"
         stop-color="#857ba0"
         id="stop29-6" /><stop
         offset="0"
         stop-color="#857ba0"
         id="stop30-1" /><stop
         offset=".13"
         stop-color="#9286b1"
         id="stop31-8" /><stop
         offset=".28"
         stop-color="#9c8ebd"
         id="stop32-9" /><stop
         offset=".48"
         stop-color="#a193c5"
         id="stop33-2" /><stop
         offset="1"
         stop-color="#a395c7"
         id="stop34-7" /></linearGradient><linearGradient
       id="linear-gradient-12"
       y1="154.33"
       x2="83.15"
       y2="154.33"
       xlink:href="#linear-gradient-11" /><linearGradient
       id="linear-gradient-13"
       x1="6727.4"
       y1="6957.33"
       x2="6780.89"
       y2="6903.83"
       gradientTransform="translate(6972.15 6854.98) rotate(-90) scale(1 -1)"
       gradientUnits="userSpaceOnUse"><stop
         offset="0"
         stop-color="#9eb6de"
         id="stop35-9" /><stop
         offset=".09"
         stop-color="#9faad5"
         id="stop36-5" /><stop
         offset=".25"
         stop-color="#a19ecd"
         id="stop37-4" /><stop
         offset=".46"
         stop-color="#a296c8"
         id="stop38-3" /><stop
         offset="1"
         stop-color="#a395c7"
         id="stop39-1" /></linearGradient><linearGradient
       id="linear-gradient-14"
       x1="6700.65"
       y1="6972.15"
       x2="6700.65"
       y2="6930.58"
       xlink:href="#linear-gradient-13" /><linearGradient
       id="linear-gradient-15"
       x1="139.61"
       y1="137.99"
       x2="164.12"
       y2="137.99"
       xlink:href="#linear-gradient-13" /><linearGradient
       id="linear-gradient-16"
       x1="123.27"
       y1="154.33"
       x2="172.29"
       y2="154.33"
       xlink:href="#linear-gradient-13" /></defs><g
     id="g1"><path
       id="path3"
       d="m 1044.113,478.047 c -1.687,0.84 -2.953,2.277 -3.793,4.301 l -24.261,75.574 -30.336,-75.574 c -0.68,-2.024 -1.895,-3.461 -3.668,-4.301 -1.766,-0.848 -3.66,-1.266 -5.684,-1.266 -2.871,0 -5.976,0.723 -9.348,2.149 -3.371,1.429 -6.281,3.328 -8.722,5.683 -2.446,2.364 -3.668,4.977 -3.668,7.84 0,1.348 0.34,2.777 1.008,4.293 l 43.476,93.02 c -0.5,7.582 -2.105,13.781 -4.797,18.582 -2.695,4.797 -5.988,8.59 -9.859,11.371 -3.879,2.785 -7.703,4.676 -11.496,5.683 -3.801,1.008 -7.129,1.516 -9.981,1.516 -3.043,0 -5.183,1.348 -6.449,4.051 -1.269,2.691 -1.902,5.894 -1.902,9.597 0,6.075 1.426,9.903 4.301,11.508 2.863,1.598 6.394,2.399 10.613,2.399 11.293,0 20.473,-1.856 27.555,-5.567 7.074,-3.703 12.765,-8.633 17.054,-14.781 4.301,-6.156 7.879,-12.977 10.742,-20.473 2.864,-7.5 5.817,-15.039 8.848,-22.621 l 36.902,-94.285 c 0.508,-1.008 0.758,-2.277 0.758,-3.785 0,-3.031 -1.308,-5.77 -3.914,-8.215 -2.613,-2.441 -5.683,-4.387 -9.23,-5.816 -3.535,-1.426 -6.567,-2.149 -9.09,-2.149 -1.695,0 -3.375,0.418 -5.059,1.266 m -174.402,4.676 c -6.582,3.789 -11.293,8.554 -14.156,14.281 -2.871,5.726 -4.297,11.625 -4.297,17.695 0,6.906 1.426,12.508 4.297,16.809 2.863,4.289 6.566,7.672 11.125,10.105 4.55,2.446 9.394,4.379 14.531,5.817 5.137,1.437 9.98,2.816 14.531,4.168 4.547,1.351 8.293,3.039 11.246,5.054 2.946,2.028 4.418,4.891 4.418,8.602 0,2.523 -1.215,4.969 -3.66,7.32 -2.441,2.367 -7.457,3.543 -15.039,3.543 -7.07,0 -12.594,-0.929 -16.555,-2.781 -3.961,-1.848 -7.242,-3.75 -9.855,-5.684 -2.613,-1.937 -5.094,-2.91 -7.457,-2.91 -2.195,0 -4.086,0.848 -5.692,2.528 -1.605,1.683 -2.863,3.664 -3.793,5.941 -0.925,2.273 -1.39,4.254 -1.39,5.937 0,3.543 1.988,6.997 5.941,10.368 3.961,3.371 9.438,6.109 16.43,8.214 6.996,2.106 14.699,3.161 23.133,3.161 14.992,0 26.492,-3.375 34.5,-10.118 7.996,-6.734 12.008,-15.664 12.008,-26.789 0,-7.582 -1.438,-13.648 -4.297,-18.203 -2.868,-4.543 -6.621,-8.207 -11.25,-10.992 -4.641,-2.781 -9.52,-4.887 -14.657,-6.316 -5.148,-1.434 -10.027,-2.739 -14.664,-3.914 -4.629,-1.176 -8.386,-2.614 -11.242,-4.301 -2.879,-1.684 -4.308,-4.051 -4.308,-7.082 0,-1.848 0.597,-3.621 1.769,-5.309 1.184,-1.676 3.039,-3.113 5.567,-4.297 2.531,-1.168 5.902,-1.769 10.105,-1.769 4.719,0 8.77,0.601 12.141,1.769 3.363,1.184 6.351,2.407 8.964,3.672 2.614,1.262 4.844,1.895 6.7,1.895 2.531,0 4.683,-1.008 6.449,-3.035 1.766,-2.024 3.168,-4.254 4.176,-6.7 1.008,-2.441 1.515,-4.425 1.515,-5.941 0,-3.031 -1.945,-5.816 -5.816,-8.34 -3.883,-2.523 -8.895,-4.504 -15.039,-5.941 -6.156,-1.426 -12.684,-2.149 -19.59,-2.149 -11.293,0 -20.223,1.899 -26.789,5.692 m -118.539,-3.418 c -6.246,1.515 -11.508,3.668 -15.797,6.449 -4.301,2.773 -6.449,5.941 -6.449,9.476 0,3.708 0.969,7.332 2.906,10.872 1.938,3.543 4.676,5.308 8.207,5.308 2.203,0 4.219,-0.668 6.074,-2.023 1.848,-1.348 4.504,-2.653 7.965,-3.918 3.445,-1.266 8.379,-1.899 14.781,-1.899 5.739,0 10.153,1.184 13.274,3.539 3.113,2.364 5.39,5.309 6.824,8.852 1.426,3.539 2.148,7.16 2.148,10.863 v 3.289 h -10.363 c -11.633,0 -21.863,1.098 -30.703,3.285 -8.859,2.196 -15.762,5.985 -20.738,11.375 -4.961,5.395 -7.461,12.887 -7.461,22.497 0,11.46 3.258,19.925 9.734,25.402 6.492,5.476 14.199,8.219 23.129,8.219 8.762,0 16.219,-2.028 22.371,-6.067 6.149,-4.051 11.5,-8.679 16.059,-13.91 v 7.336 c 0,2.863 1.383,5.305 4.164,7.332 2.785,2.023 6.281,3.031 10.492,3.031 4.547,0 8.34,-1.008 11.371,-3.031 3.035,-2.027 4.551,-4.469 4.551,-7.332 v -61.926 c 0,-8.597 -1.813,-16.601 -5.434,-24.012 -3.621,-7.414 -9.402,-13.48 -17.312,-18.199 -7.922,-4.718 -18.457,-7.082 -31.598,-7.082 -5.902,0 -11.961,0.758 -18.195,2.274 m 7.199,94.031 c -2.613,-2.188 -3.918,-5.648 -3.918,-10.359 0,-4.719 1.563,-8.215 4.676,-10.497 3.121,-2.269 7.207,-3.75 12.258,-4.418 5.066,-0.667 10.363,-1.007 15.922,-1.007 h 3.796 v 5.297 c 0,4.05 -1.23,7.921 -3.664,11.632 -2.445,3.704 -5.433,6.746 -8.972,9.102 -3.535,2.363 -7.082,3.531 -10.617,3.531 -3.711,0 -6.868,-1.09 -9.481,-3.281 M 622.898,483.988 c -8.347,4.629 -15.003,10.785 -19.98,18.45 -4.961,7.667 -7.457,16.046 -7.457,25.144 v 21.488 c 0,10.278 2.613,19.34 7.84,27.172 5.219,7.832 12.426,13.906 21.613,18.196 9.188,4.3 19.758,6.453 31.723,6.453 9.097,0 16.972,-1.145 23.629,-3.418 6.652,-2.274 11.8,-5.059 15.422,-8.34 3.621,-3.285 5.433,-6.36 5.433,-9.227 0,-1.683 -0.5,-3.664 -1.519,-5.937 -1.008,-2.278 -2.442,-4.254 -4.29,-5.942 -1.855,-1.679 -4.05,-2.523 -6.574,-2.523 -2.363,0 -4.886,0.758 -7.582,2.273 -2.703,1.516 -5.906,3.121 -9.605,4.797 -3.711,1.688 -8.344,2.535 -13.906,2.535 -8.762,0 -15.879,-2.23 -21.348,-6.699 -5.485,-4.461 -8.215,-10.32 -8.215,-17.574 v -3.781 h 51.309 c 3.863,0 7.617,-0.383 11.238,-1.141 3.633,-0.758 6.621,-2.695 8.973,-5.816 2.367,-3.114 3.543,-8.297 3.543,-15.539 0,-9.438 -2.446,-17.7 -7.333,-24.774 -4.886,-7.082 -11.238,-12.637 -19.082,-16.68 -7.828,-4.05 -16.472,-6.074 -25.902,-6.074 -10.285,0 -19.598,2.321 -27.93,6.957 m 5.184,36.77 c 0,-4.039 1.043,-7.535 3.148,-10.488 2.114,-2.946 4.844,-5.219 8.215,-6.825 3.371,-1.597 6.993,-2.402 10.875,-2.402 4.039,0 7.742,0.848 11.121,2.527 3.364,1.684 6.067,4.047 8.082,7.082 2.028,3.032 3.036,6.485 3.036,10.364 0,2.695 -0.543,4.507 -1.645,5.433 -1.094,0.93 -3.074,1.391 -5.937,1.391 h -36.895 z"
       transform="scale(1.3333333)"
       style="fill:url(#linearGradient3);stroke:none" /><path
       id="path4"
       d="m 1764.691,601.699 c -1.203,0 -2.23,-0.472 -3.097,-1.418 -0.867,-0.941 -1.285,-2.015 -1.285,-3.226 V 484.23 c 0,-1.367 0.418,-2.449 1.285,-3.226 0.867,-0.774 1.894,-1.164 3.097,-1.164 1.375,0 2.497,0.39 3.364,1.164 0.855,0.777 1.293,1.859 1.293,3.226 v 13.684 c 2.058,-3.441 4.718,-6.621 8,-9.547 3.261,-2.926 7.234,-5.332 11.871,-7.234 4.648,-1.887 9.976,-2.836 16.008,-2.836 h 9.55 c 1.203,0 2.239,0.43 3.106,1.285 0.855,0.867 1.285,1.98 1.285,3.363 0,1.203 -0.43,2.235 -1.285,3.098 -0.867,0.855 -1.903,1.285 -3.106,1.285 h -9.55 c -6.032,0 -11.789,1.512 -17.293,4.52 -5.52,3.015 -9.985,7.281 -13.43,12.781 -3.442,5.516 -5.156,12.219 -5.156,20.137 v 72.289 c 0,1.211 -0.438,2.285 -1.293,3.226 -0.867,0.946 -1.989,1.418 -3.364,1.418 M 1643.605,535.09 h 58.09 c 6.364,0 10.543,-0.594 12.52,-1.805 1.976,-1.203 2.973,-3.781 2.973,-7.746 0,-6.195 -1.512,-12.215 -4.52,-18.066 -3.016,-5.848 -7.273,-10.68 -12.773,-14.457 -5.524,-3.793 -11.973,-5.688 -19.364,-5.688 -6.886,0 -13.136,1.723 -18.722,5.168 -5.594,3.442 -10.032,7.914 -13.293,13.418 -3.27,5.516 -4.911,11.535 -4.911,18.078 z m 43.114,68.16 c -10.16,0 -19.145,-1.977 -26.981,-5.941 -7.832,-3.954 -13.984,-9.422 -18.457,-16.391 -4.472,-6.969 -6.707,-15.188 -6.707,-24.652 v -32.274 c 0,-8.265 2.098,-15.871 6.324,-22.851 4.211,-6.969 9.805,-12.52 16.782,-16.645 6.972,-4.137 14.578,-6.199 22.851,-6.199 8.082,0 15.617,2.023 22.578,6.07 6.981,4.035 12.567,9.547 16.782,16.52 4.218,6.968 6.324,14.933 6.324,23.879 0,6.195 -1.027,10.679 -3.086,13.422 -2.07,2.761 -4.695,4.437 -7.883,5.039 -3.18,0.601 -6.672,0.902 -10.449,0.902 h -61.192 v 12.137 c 0,11.707 4.137,20.953 12.391,27.75 8.274,6.804 18.68,10.195 31.242,10.195 7.227,0 12.727,-0.902 16.528,-2.707 3.781,-1.801 6.66,-3.57 8.644,-5.293 1.981,-1.723 3.746,-2.578 5.297,-2.578 0.855,0 1.621,0.258 2.32,0.773 0.684,0.512 1.243,1.121 1.676,1.805 0.43,0.684 0.649,1.375 0.649,2.059 0,1.558 -1.422,3.535 -4.262,5.941 -2.844,2.414 -6.934,4.519 -12.266,6.332 -5.34,1.805 -11.707,2.707 -19.105,2.707 m -173.996,-1.551 c -1.203,0 -2.235,-0.472 -3.098,-1.418 -0.867,-0.941 -1.293,-2.015 -1.293,-3.226 V 484.23 c 0,-1.367 0.426,-2.449 1.293,-3.226 0.863,-0.774 1.895,-1.164 3.098,-1.164 1.375,0 2.496,0.39 3.363,1.164 0.855,0.777 1.281,1.859 1.281,3.226 v 13.684 c 2.926,-4.98 7.274,-9.512 13.039,-13.547 5.77,-4.047 12.949,-6.07 21.559,-6.07 8.426,0 16.18,2.105 23.234,6.324 7.059,4.219 12.692,9.813 16.918,16.785 4.211,6.969 6.324,14.758 6.324,23.36 v 72.289 c 0,1.547 -0.484,2.715 -1.421,3.488 -0.958,0.773 -2.032,1.156 -3.235,1.156 -1.031,0 -2.015,-0.383 -2.961,-1.156 -0.949,-0.773 -1.422,-1.941 -1.422,-3.488 v -72.289 c 0,-6.368 -1.683,-12.391 -5.039,-18.067 -3.351,-5.683 -7.781,-10.332 -13.293,-13.949 -5.504,-3.609 -11.617,-5.422 -18.332,-5.422 -5.847,0 -11.48,1.512 -16.91,4.52 -5.422,3.015 -9.848,7.281 -13.293,12.781 -3.445,5.516 -5.168,12.219 -5.168,20.137 v 72.289 c 0,1.211 -0.426,2.285 -1.281,3.226 -0.867,0.946 -1.988,1.418 -3.363,1.418 m -43.887,0 c -12.219,0 -21.551,-2.84 -28.008,-8.515 -6.453,-5.688 -9.676,-14.809 -9.676,-27.364 V 424.598 c 0,-1.375 0.461,-2.461 1.418,-3.227 0.942,-0.773 1.934,-1.164 2.961,-1.164 1.203,0 2.281,0.391 3.235,1.164 0.941,0.766 1.422,1.852 1.422,3.227 v 55.242 h 34.851 c 1.203,0 2.231,0.437 3.098,1.293 0.855,0.867 1.285,1.984 1.285,3.363 0,1.203 -0.43,2.231 -1.285,3.098 -0.867,0.855 -1.895,1.281 -3.098,1.281 h -34.851 v 76.945 c 0,9.805 2.14,16.739 6.453,20.774 4.289,4.054 11.699,6.07 22.195,6.07 h 5.949 c 1.203,0 2.231,0.391 3.098,1.164 0.847,0.774 1.285,1.852 1.285,3.227 0,1.211 -0.438,2.285 -1.285,3.226 -0.867,0.946 -1.895,1.418 -3.098,1.418 z m -118.758,0 c -1.199,0 -2.23,-0.472 -3.098,-1.418 -0.855,-0.941 -1.285,-2.015 -1.285,-3.226 V 484.23 c 0,-1.367 0.43,-2.449 1.285,-3.226 0.868,-0.774 1.899,-1.164 3.098,-1.164 1.387,0 2.508,0.39 3.363,1.164 0.856,0.777 1.293,1.859 1.293,3.226 v 13.684 c 2.059,-3.441 4.719,-6.621 8,-9.547 3.262,-2.926 7.235,-5.332 11.883,-7.234 4.637,-1.887 9.965,-2.836 15.996,-2.836 h 9.551 c 1.203,0 2.242,0.43 3.106,1.285 0.859,0.867 1.292,1.98 1.292,3.363 0,1.203 -0.433,2.235 -1.292,3.098 -0.864,0.855 -1.903,1.285 -3.106,1.285 h -9.551 c -6.031,0 -11.789,1.512 -17.293,4.52 -5.519,3.015 -9.984,7.281 -13.429,12.781 -3.442,5.516 -5.157,12.219 -5.157,20.137 v 72.289 c 0,1.211 -0.437,2.285 -1.293,3.226 -0.855,0.946 -1.976,1.418 -3.363,1.418 m -92.933,-7.488 c 6.543,0 12.773,-1.586 18.714,-4.773 5.942,-3.18 10.797,-7.008 14.586,-11.489 3.782,-4.472 5.676,-8.519 5.676,-12.129 v -21.691 h -14.191 c -8.778,0 -17.086,0.519 -24.922,1.547 -7.824,1.031 -14.196,3.316 -19.098,6.844 -4.898,3.523 -7.359,9.082 -7.359,16.652 0,8.613 2.578,14.933 7.754,18.973 5.156,4.054 11.433,6.066 18.84,6.066 m 0.257,9.039 c -9.976,0 -18.461,-2.797 -25.429,-8.391 -6.973,-5.593 -10.453,-14.16 -10.453,-25.687 0,-9.117 2.535,-16.133 7.617,-21.035 5.066,-4.91 12.129,-8.309 21.168,-10.203 9.027,-1.899 19.488,-2.844 31.359,-2.844 h 14.457 v -7.227 c 0,-6.543 -1.117,-12.91 -3.351,-19.105 -2.243,-6.196 -5.848,-11.317 -10.84,-15.36 -4.996,-4.046 -11.629,-6.07 -19.883,-6.07 -5.34,0 -9.813,0.567 -13.43,1.676 -3.605,1.121 -6.488,2.289 -8.644,3.492 -2.153,1.199 -3.746,1.801 -4.778,1.801 -1.383,0 -2.496,-0.637 -3.351,-1.93 -0.867,-1.293 -1.293,-2.371 -1.293,-3.226 0,-1.723 1.594,-3.399 4.773,-5.039 3.188,-1.629 7.227,-3.004 12.137,-4.125 4.91,-1.122 9.941,-1.68 15.105,-1.68 10.668,0 19.098,2.363 25.301,7.101 6.195,4.727 10.625,10.84 13.293,18.332 2.672,7.477 4,15.532 4,24.133 v 69.192 c 0,1.211 -0.39,2.285 -1.156,3.226 -0.774,0.946 -1.859,1.418 -3.234,1.418 -1.204,0 -2.278,-0.472 -3.215,-1.418 -0.957,-0.941 -1.434,-2.015 -1.434,-3.226 v -13.422 c -4.297,4.984 -9.676,9.512 -16.125,13.551 -6.461,4.043 -13.984,6.066 -22.594,6.066 m -109.718,-9.039 c 6.543,0 12.566,-1.805 18.078,-5.422 5.504,-3.605 9.937,-8.344 13.293,-14.195 3.351,-5.848 5.027,-11.961 5.027,-18.328 v -31.5 c 0,-6.368 -1.676,-12.391 -5.027,-18.067 -3.356,-5.683 -7.789,-10.332 -13.293,-13.949 -5.512,-3.609 -11.625,-5.422 -18.332,-5.422 -5.86,0 -11.489,1.512 -16.91,4.52 -5.422,3.015 -9.86,7.281 -13.293,12.781 -3.446,5.516 -5.168,12.219 -5.168,20.137 v 41.054 c 0,2.926 1.55,6.625 4.648,11.098 3.098,4.473 7.359,8.473 12.773,12 5.43,3.535 11.489,5.293 18.204,5.293 m -40.282,68.672 c -1.191,0 -2.23,-0.473 -3.086,-1.414 -0.867,-0.946 -1.296,-2.031 -1.296,-3.223 V 484.23 c 0,-1.367 0.429,-2.449 1.296,-3.226 0.856,-0.774 1.895,-1.164 3.086,-1.164 1.387,0 2.508,0.39 3.371,1.164 0.848,0.777 1.286,1.859 1.286,3.226 v 13.684 c 2.918,-4.98 7.269,-9.512 13.039,-13.547 5.765,-4.047 12.949,-6.07 21.558,-6.07 8.426,0 16.172,2.105 23.231,6.324 7.054,4.219 12.683,9.813 16.91,16.785 4.211,6.969 6.336,14.758 6.336,23.36 v 31.5 c 0,8.089 -2.125,15.742 -6.336,22.976 -4.227,7.227 -9.813,13.039 -16.781,17.422 -6.969,4.391 -14.586,6.586 -22.84,6.586 -7.918,0 -15.028,-1.934 -21.305,-5.812 -6.285,-3.872 -10.894,-8.473 -13.812,-13.805 v 74.613 c 0,1.192 -0.438,2.277 -1.286,3.223 -0.863,0.941 -1.984,1.414 -3.371,1.414"
       style="fill:#a294c6;fill-opacity:1;fill-rule:nonzero;stroke:none"
       transform="scale(1.3333333)" /><path
       id="path6"
       d="m 400.293,713.926 c 22.566,20.609 51.609,31.918 82.145,31.918 30.55,0 59.585,-11.313 82.144,-31.918 z"
       transform="scale(1.3333333)"
       style="fill:url(#linearGradient6);stroke:none" /><path
       id="path9"
       d="m 236.004,713.926 c 45.133,41.219 103.219,63.836 164.289,63.836 61.098,0 119.168,-22.625 164.289,-63.836 z"
       transform="scale(1.3333333)"
       style="fill:url(#linearGradient9);stroke:none" /><path
       id="path12"
       d="m 400.293,713.922 h 164.289 c -22.559,-20.606 -51.594,-31.914 -82.144,-31.914 -30.536,0 -59.579,11.304 -82.145,31.914"
       transform="scale(1.3333333)"
       style="fill:url(#linearGradient12);stroke:none" /><path
       id="path15"
       d="M 236.004,713.922 H 564.582 C 519.461,672.715 461.391,650.09 400.293,650.09 c -61.07,0 -119.156,22.613 -164.289,63.832"
       transform="scale(1.3333333)"
       style="fill:url(#linearGradient15);stroke:none" /><path
       id="path18"
       d="m 400.293,366.078 c 22.566,20.61 51.609,31.914 82.145,31.914 30.55,0 59.585,-11.308 82.144,-31.914 z"
       transform="scale(1.3333333)"
       style="fill:url(#linearGradient18);stroke:none" /><path
       id="path21"
       d="m 236.004,366.078 c 45.133,41.219 103.219,63.832 164.289,63.832 61.098,0 119.168,-22.625 164.289,-63.832 z"
       transform="scale(1.3333333)"
       style="fill:url(#linearGradient21);stroke:none" /><path
       id="path24"
       d="m 400.293,366.074 h 164.289 c -22.559,-20.605 -51.594,-31.918 -82.144,-31.918 -30.536,0 -59.579,11.309 -82.145,31.918"
       transform="scale(1.3333333)"
       style="fill:url(#linearGradient24);stroke:none" /><path
       id="path27"
       d="m 236.004,366.074 h 328.578 c -45.121,-41.211 -103.191,-63.836 -164.289,-63.836 -61.07,0 -119.156,22.617 -164.289,63.836"
       transform="scale(1.3333333)"
       style="fill:url(#linearGradient27);stroke:none" /><path
       id="path31"
       d="m 425.387,539.215 -25.094,50.183 c 27.668,0 50.184,-22.507 50.184,-50.175 0,-27.676 -22.516,-50.192 -50.184,-50.192 z"
       transform="scale(1.3333333)"
       style="fill:url(#linearGradient31);stroke:none" /><path
       id="path34"
       d="m 224.672,539.215 c 20.609,-22.567 31.914,-51.61 31.914,-82.145 0,-30.55 -11.313,-59.586 -31.914,-82.144 z"
       transform="scale(1.3333333)"
       style="fill:url(#linearGradient34);stroke:none" /><path
       id="path37"
       d="m 224.672,703.504 c 41.219,-45.133 63.832,-103.219 63.832,-164.289 0,-61.098 -22.625,-119.168 -63.832,-164.289 z"
       transform="scale(1.3333333)"
       style="fill:url(#linearGradient37);stroke:none" /><path
       id="path40"
       d="m 192.75,457.07 c 0,30.535 11.309,59.578 31.914,82.145 V 374.926 C 204.062,397.484 192.75,426.52 192.75,457.07"
       transform="scale(1.3333333)"
       style="fill:url(#linearGradient40);stroke:none" /><path
       id="path43"
       d="m 160.832,539.215 c 0,61.07 22.617,119.156 63.832,164.289 V 374.926 c -41.207,45.121 -63.832,103.191 -63.832,164.289"
       transform="scale(1.3333333)"
       style="fill:url(#linearGradient43);stroke:none" /><path
       id="path46"
       d="m 375.203,514.129 c 0,13.832 11.254,25.086 25.09,25.086 l 12.547,-25.094 -12.547,-25.09 c -13.836,0 -25.09,11.258 -25.09,25.098"
       transform="scale(1.3333333)"
       style="fill:url(#linearGradient46);stroke:none" /><path
       id="path49"
       d="m 350.113,539.223 c 0,27.668 22.504,50.175 50.18,50.175 l 25.094,-50.183 -25.094,-50.184 c -27.676,0 -50.18,22.516 -50.18,50.192"
       transform="scale(1.3333333)"
       style="fill:url(#linearGradient49);stroke:none" /><path
       style="font-weight:500;font-size:125.849px;font-family:Poppins;-inkscape-font-specification:'Poppins, Medium';fill:#1bbdd5;fill-opacity:1;stroke-width:1.11586"
       d="m 1808.383,848.9935 v 62.21048 c 0,7.39598 1.9192,12.96637 5.7576,16.71117 3.932,3.7448 9.362,5.6172 16.2898,5.6172 7.0215,0 12.4515,-1.8724 16.2899,-5.6172 3.9321,-3.7448 5.8981,-9.31519 5.8981,-16.71117 V 848.9935 h 16.009 v 61.92963 c 0,7.95769 -1.7319,14.69833 -5.1959,20.22191 -3.4639,5.52359 -8.0981,9.64286 -13.9025,12.35784 -5.8045,2.71499 -12.2175,4.07247 -19.239,4.07247 -7.0215,0 -13.4344,-1.35748 -19.2389,-4.07247 -5.7108,-2.71498 -10.2514,-6.83425 -13.6216,-12.35784 -3.3704,-5.52358 -5.0556,-12.26422 -5.0556,-20.22191 V 848.9935 Z m 97.0371,31.59675 c 2.715,-3.55756 6.413,-6.55341 11.094,-8.98753 4.6809,-2.43411 9.9705,-3.65117 15.8686,-3.65117 6.7406,0 12.8727,1.68515 18.3963,5.05548 5.6172,3.2767 10.0173,7.91088 13.2005,13.90257 3.183,5.99168 4.7745,12.87274 4.7745,20.6432 0,7.77046 -1.5915,14.74515 -4.7745,20.92407 -3.1832,6.0853 -7.5833,10.85992 -13.2005,14.32385 -5.5236,3.37033 -11.6557,5.05549 -18.3963,5.05549 -5.8981,0 -11.1408,-1.17026 -15.7281,-3.51075 -4.5874,-2.43412 -8.3323,-5.42997 -11.2345,-8.98751 v 48.02702 h -16.009 V 869.21542 h 16.009 z m 47.0441,26.96255 c 0,-5.33634 -1.1234,-9.92372 -3.3703,-13.76214 -2.1533,-3.93203 -5.0555,-6.88106 -8.7067,-8.84708 -3.5576,-2.05965 -7.396,-3.08947 -11.5153,-3.08947 -4.0256,0 -7.864,1.02982 -11.5153,3.08947 -3.5575,2.05963 -6.4597,5.05547 -8.7066,8.98751 -2.1533,3.93204 -3.2299,8.56624 -3.2299,13.90258 0,5.33633 1.0766,10.01734 3.2299,14.04299 2.2469,3.93205 5.1491,6.92788 8.7066,8.98752 3.6513,2.05964 7.4897,3.08946 11.5153,3.08946 4.1193,0 7.9577,-1.02982 11.5153,-3.08946 3.6512,-2.15327 6.5534,-5.24272 8.7067,-9.26838 2.2469,-4.02566 3.3703,-8.70665 3.3703,-14.043 z m 48.1675,-26.96255 c 2.7149,-3.55756 6.4129,-6.55341 11.0939,-8.98753 4.6809,-2.43411 9.9705,-3.65117 15.8685,-3.65117 6.7407,0 12.8727,1.68515 18.3964,5.05548 5.6172,3.2767 10.0173,7.91088 13.2004,13.90257 3.183,5.99168 4.7746,12.87274 4.7746,20.6432 0,7.77046 -1.5916,14.74515 -4.7746,20.92407 -3.1831,6.0853 -7.5832,10.85992 -13.2004,14.32385 -5.5237,3.37033 -11.6557,5.05549 -18.3964,5.05549 -5.898,0 -11.1407,-1.17026 -15.7281,-3.51075 -4.5874,-2.43412 -8.3322,-5.42997 -11.2343,-8.98751 v 48.02702 h -16.0091 V 869.21542 h 16.0091 z m 47.0439,26.96255 c 0,-5.33634 -1.1234,-9.92372 -3.3703,-13.76214 -2.1532,-3.93203 -5.0554,-6.88106 -8.7066,-8.84708 -3.5576,-2.05965 -7.396,-3.08947 -11.5153,-3.08947 -4.0256,0 -7.864,1.02982 -11.5153,3.08947 -3.5575,2.05963 -6.4598,5.05547 -8.7067,8.98751 -2.1532,3.93204 -3.2297,8.56624 -3.2297,13.90258 0,5.33633 1.0765,10.01734 3.2297,14.04299 2.2469,3.93205 5.1492,6.92788 8.7067,8.98752 3.6513,2.05964 7.4897,3.08946 11.5153,3.08946 4.1193,0 7.9577,-1.02982 11.5153,-3.08946 3.6512,-2.15327 6.5534,-5.24272 8.7066,-9.26838 2.2469,-4.02566 3.3703,-8.70665 3.3703,-14.043 z m 60.2444,40.30341 c -6.0852,0 -11.562,-1.07663 -16.4302,-3.22989 -4.7747,-2.24688 -8.5663,-5.24272 -11.3749,-8.98753 -2.8087,-3.83841 -4.3065,-8.09812 -4.4937,-12.77913 h 16.5706 c 0.2809,3.27671 1.8257,6.03851 4.6343,8.28538 2.9022,2.15326 6.5065,3.22988 10.8131,3.22988 4.4937,0 7.9577,-0.84257 10.3919,-2.52773 2.5276,-1.77878 3.7915,-4.02565 3.7915,-6.74064 0,-2.90223 -1.4044,-5.05548 -4.2128,-6.45978 -2.7151,-1.4043 -7.0684,-2.94903 -13.06,-4.63419 -5.8046,-1.59154 -10.5323,-3.13627 -14.1835,-4.63419 -3.6511,-1.49791 -6.8343,-3.79161 -9.5492,-6.88106 -2.6214,-3.08946 -3.932,-7.16193 -3.932,-12.21742 0,-4.11928 1.217,-7.86408 3.6511,-11.2344 2.4341,-3.46393 5.8981,-6.17892 10.3918,-8.14493 4.5874,-1.96602 9.8301,-2.94903 15.7282,-2.94903 8.8002,0 15.8685,2.24688 21.2049,6.74063 5.4299,4.40014 8.3322,10.43864 8.7067,18.11547 h -16.0091 c -0.2809,-3.46394 -1.6851,-6.22572 -4.2129,-8.28536 -2.5277,-2.05965 -5.9448,-3.08946 -10.2513,-3.08946 -4.2129,0 -7.4429,0.79576 -9.6896,2.38731 -2.2469,1.59154 -3.3704,3.69798 -3.3704,6.31935 0,2.05963 0.7489,3.7916 2.2469,5.19591 1.4978,1.40429 3.3234,2.52773 5.4767,3.37031 2.1533,0.74897 5.3364,1.73197 9.5492,2.94903 5.6172,1.49793 10.2046,3.04265 13.7622,4.63419 3.6512,1.49792 6.7875,3.7448 9.4088,6.74064 2.6213,2.99584 3.9789,6.9747 4.0725,11.93655 0,4.40014 -1.2171,8.33218 -3.6512,11.79612 -2.4342,3.46394 -5.898,6.17892 -10.3918,8.14494 -4.4002,1.96602 -9.5961,2.94903 -15.5878,2.94903 z m 41.5674,-40.30341 c 0,-7.77046 1.5915,-14.65152 4.7746,-20.6432 3.2767,-5.99169 7.6768,-10.62587 13.2005,-13.90257 5.6171,-3.37033 11.7961,-5.05548 18.5367,-5.05548 6.0853,0 11.3748,1.21706 15.8686,3.65117 4.5874,2.34051 8.2385,5.28954 10.9535,8.84709 v -11.23439 h 16.1495 v 77.37692 h -16.1495 v -11.51526 c -2.715,3.65118 -6.4129,6.69383 -11.094,9.12795 -4.681,2.43412 -10.0173,3.65118 -16.009,3.65118 -6.647,0 -12.7323,-1.68516 -18.2558,-5.05549 -5.5237,-3.46393 -9.9238,-8.23855 -13.2005,-14.32385 -3.1831,-6.17892 -4.7746,-13.15361 -4.7746,-20.92407 z m 63.3339,0.28087 c 0,-5.33634 -1.1235,-9.97054 -3.3703,-13.90258 -2.1533,-3.93204 -5.0087,-6.92788 -8.5662,-8.98751 -3.5576,-2.05965 -7.3959,-3.08947 -11.5152,-3.08947 -4.1194,0 -7.9578,1.02982 -11.5153,3.08947 -3.5575,1.96602 -6.4598,4.91505 -8.7067,8.84708 -2.1533,3.83842 -3.2299,8.4258 -3.2299,13.76214 0,5.33635 1.0766,10.01734 3.2299,14.043 2.2469,4.02566 5.1492,7.11511 8.7067,9.26838 3.6511,2.05964 7.4895,3.08946 11.5153,3.08946 4.1193,0 7.9576,-1.02982 11.5152,-3.08946 3.5575,-2.05964 6.4129,-5.05547 8.5662,-8.98752 2.2468,-4.02565 3.3703,-8.70666 3.3703,-14.04299 z m 53.2229,-65.15952 v 103.91819 h -16.009 v -33.31319 -70.605 z m 15.7282,64.87865 c 0,-7.77046 1.5915,-14.65152 4.7746,-20.6432 3.2766,-5.99169 7.6768,-10.62587 13.2004,-13.90257 5.6172,-3.37033 11.7961,-5.05548 18.5367,-5.05548 6.0853,0 11.3749,1.21706 15.8687,3.65117 4.5874,2.34051 8.2385,5.28954 10.9535,8.84709 v -11.23439 h 16.1494 v 77.37692 h -16.1494 v -11.51526 c -2.715,3.65118 -6.4129,6.69383 -11.0939,9.12795 -4.6811,2.43412 -10.0175,3.65118 -16.0091,3.65118 -6.647,0 -12.7323,-1.68516 -18.2559,-5.05549 -5.5236,-3.46393 -9.9238,-8.23855 -13.2004,-14.32385 -3.1831,-6.17892 -4.7746,-13.15361 -4.7746,-20.92407 z m 63.3339,0.28087 c 0,-5.33634 -1.1235,-9.97054 -3.3704,-13.90258 -2.1532,-3.93204 -5.0086,-6.92788 -8.5662,-8.98751 -3.5575,-2.05965 -7.3959,-3.08947 -11.5153,-3.08947 -4.1192,0 -7.9576,1.02982 -11.5152,3.08947 -3.5576,1.96602 -6.4597,4.91505 -8.7066,8.84708 -2.1533,3.83842 -3.23,8.4258 -3.23,13.76214 0,5.33635 1.0767,10.01734 3.23,14.043 2.2469,4.02566 5.149,7.11511 8.7066,9.26838 3.6512,2.05964 7.4896,3.08946 11.5152,3.08946 4.1194,0 7.9578,-1.02982 11.5153,-3.08946 3.5576,-2.05964 6.413,-5.05547 8.5662,-8.98752 2.2469,-4.02565 3.3704,-8.70666 3.3704,-14.04299 z"
       id="text49"
       aria-label="Uppsala" /><g
       id="g73"
       transform="translate(827.61331,153.32964)"><g
         id="g72"><g
           id="g2"
           transform="matrix(1.9676945,0,0,1.9676945,-598.26311,269.67103)"><path
             class="cls-10"
             d="m 318.78,299.45 v -30.72 h 9.81 c 2.54,0 4.72,0.4 6.54,1.2 1.82,0.8 3.22,1.94 4.19,3.42 0.97,1.48 1.45,3.25 1.45,5.31 0,2.06 -0.48,3.82 -1.45,5.31 -0.97,1.49 -2.37,2.65 -4.19,3.45 -1.82,0.8 -4,1.21 -6.52,1.21 h -5.32 v 10.81 h -4.51 z m 4.51,-14.79 h 4.89 c 2.55,0 4.52,-0.53 5.91,-1.59 1.39,-1.06 2.08,-2.53 2.08,-4.41 0,-1.88 -0.69,-3.35 -2.08,-4.39 -1.39,-1.04 -3.36,-1.57 -5.91,-1.57 h -4.89 z"
             id="path56" /><path
             class="cls-10"
             d="m 361.17,299.45 h -3.62 l -0.25,-2.62 c -0.75,0.96 -1.7,1.7 -2.85,2.23 -1.15,0.53 -2.42,0.8 -3.81,0.8 -1.46,0 -2.76,-0.29 -3.91,-0.86 -1.15,-0.57 -2.05,-1.36 -2.7,-2.36 -0.65,-1 -0.98,-2.13 -0.98,-3.4 0,-1.34 0.35,-2.52 1.06,-3.53 0.71,-1.01 1.68,-1.82 2.91,-2.4 1.23,-0.58 2.63,-0.87 4.2,-0.87 0.98,0 1.98,0.12 3,0.35 1.02,0.23 1.94,0.56 2.75,0.98 v -0.76 c 0,-1 -0.26,-1.85 -0.77,-2.57 -0.51,-0.72 -1.21,-1.27 -2.09,-1.65 -0.88,-0.38 -1.85,-0.57 -2.92,-0.57 -0.94,0 -1.9,0.16 -2.88,0.49 -0.98,0.33 -1.89,0.83 -2.75,1.52 l -1.27,-3.42 c 1.24,-0.74 2.54,-1.3 3.88,-1.68 1.34,-0.38 2.67,-0.57 3.96,-0.57 1.86,0 3.46,0.37 4.8,1.11 1.34,0.74 2.39,1.79 3.12,3.14 0.74,1.36 1.11,2.96 1.11,4.8 v 11.84 z m -9.7,-3.16 c 0.97,0 1.86,-0.2 2.68,-0.6 0.82,-0.4 1.48,-0.98 2,-1.72 0.51,-0.74 0.79,-1.61 0.83,-2.61 v -0.29 c -0.7,-0.52 -1.48,-0.92 -2.34,-1.22 -0.86,-0.3 -1.75,-0.44 -2.65,-0.44 -1.38,0 -2.53,0.33 -3.44,0.98 -0.91,0.65 -1.37,1.49 -1.37,2.52 0,0.64 0.19,1.22 0.56,1.73 0.37,0.51 0.89,0.91 1.54,1.21 0.65,0.3 1.38,0.44 2.2,0.44 z"
             id="path57" /><path
             class="cls-10"
             d="m 370.02,299.45 h -4.2 v -20.48 h 3.67 l 0.16,3.89 c 0.71,-1.35 1.69,-2.41 2.94,-3.16 1.25,-0.76 2.69,-1.14 4.31,-1.14 0.4,0 0.8,0.02 1.2,0.07 0.4,0.05 0.81,0.12 1.22,0.22 l -0.53,3.79 c -0.79,-0.2 -1.57,-0.31 -2.33,-0.31 -1.27,0 -2.39,0.3 -3.36,0.91 -0.97,0.61 -1.72,1.44 -2.26,2.51 -0.54,1.06 -0.81,2.29 -0.81,3.69 v 10.01 z"
             id="path58" /><path
             class="cls-10"
             d="m 394.39,298.93 c -1.43,0.61 -2.82,0.92 -4.16,0.92 -1.34,0 -2.51,-0.29 -3.51,-0.86 -1,-0.57 -1.79,-1.38 -2.36,-2.43 -0.57,-1.05 -0.85,-2.25 -0.85,-3.61 v -10.24 h -3.58 v -3.75 h 3.79 v -5.12 h 3.99 v 5.12 h 5.98 v 3.75 h -5.98 v 9.46 c 0,1.2 0.32,2.15 0.97,2.86 0.65,0.71 1.48,1.05 2.51,1.05 0.86,0 1.71,-0.26 2.56,-0.78 l 0.63,3.62 z"
             id="path59" /><path
             class="cls-10"
             d="m 416.14,299.86 c -2.05,0 -3.89,-0.46 -5.53,-1.39 -1.64,-0.93 -2.93,-2.19 -3.87,-3.8 -0.94,-1.6 -1.41,-3.42 -1.41,-5.46 0,-2.04 0.47,-3.83 1.41,-5.44 0.94,-1.61 2.23,-2.87 3.87,-3.81 1.64,-0.94 3.48,-1.4 5.53,-1.4 2.05,0 3.9,0.47 5.53,1.4 1.63,0.93 2.9,2.2 3.84,3.81 0.94,1.6 1.4,3.42 1.4,5.44 0,2.02 -0.47,3.85 -1.4,5.46 -0.93,1.61 -2.22,2.87 -3.84,3.8 -1.62,0.93 -3.47,1.39 -5.53,1.39 z m -0.02,-3.77 c 1.24,0 2.35,-0.3 3.33,-0.91 0.98,-0.61 1.75,-1.43 2.31,-2.46 0.57,-1.03 0.85,-2.2 0.85,-3.51 0,-1.31 -0.28,-2.48 -0.85,-3.51 -0.57,-1.03 -1.34,-1.85 -2.31,-2.46 -0.97,-0.61 -2.09,-0.91 -3.33,-0.91 -1.24,0 -2.33,0.3 -3.32,0.91 -0.99,0.61 -1.76,1.43 -2.32,2.46 -0.56,1.03 -0.85,2.2 -0.85,3.51 0,1.31 0.28,2.48 0.85,3.51 0.57,1.03 1.34,1.85 2.32,2.46 0.98,0.61 2.09,0.91 3.32,0.91 z"
             id="path60" /><path
             class="cls-10"
             d="m 436.23,299.45 h -4.2 v -16.73 h -3.58 v -3.75 h 3.58 v -3.99 c 0,-1.34 0.3,-2.52 0.89,-3.55 0.59,-1.03 1.41,-1.84 2.46,-2.43 1.05,-0.59 2.25,-0.88 3.61,-0.88 0.85,0 1.7,0.12 2.56,0.35 0.86,0.23 1.71,0.59 2.54,1.09 l -1.6,3.3 c -0.45,-0.33 -0.92,-0.57 -1.4,-0.73 -0.48,-0.16 -0.97,-0.24 -1.44,-0.24 -1,0 -1.82,0.35 -2.46,1.06 -0.64,0.71 -0.96,1.66 -0.96,2.85 v 3.17 h 6.27 v 3.75 h -6.27 z"
             id="path61" /><path
             class="cls-10"
             d="m 483.42,299.45 h -4.96 l -17.65,-23.71 v 23.71 h -4.51 v -30.72 h 4.96 l 17.65,23.73 v -23.73 h 4.51 z"
             id="path62" /><path
             class="cls-10"
             d="m 506.74,297.01 c -2.54,1.9 -5.33,2.85 -8.38,2.85 -2.17,0 -4.12,-0.48 -5.84,-1.43 -1.72,-0.95 -3.08,-2.26 -4.08,-3.91 -1,-1.65 -1.49,-3.52 -1.49,-5.59 0,-2.07 0.46,-3.75 1.37,-5.31 0.91,-1.56 2.16,-2.8 3.75,-3.7 1.59,-0.9 3.38,-1.35 5.39,-1.35 2.01,0 3.9,0.49 5.48,1.47 1.58,0.98 2.81,2.35 3.69,4.11 0.88,1.75 1.32,3.79 1.32,6.09 v 0.66 h -16.44 c 0.25,1.06 0.71,2 1.38,2.8 0.67,0.8 1.52,1.42 2.54,1.86 1.02,0.44 2.16,0.67 3.43,0.67 2.27,0 4.35,-0.74 6.25,-2.21 l 1.64,3.01 z m -15.42,-9.03 h 12.72 c -0.14,-1.15 -0.49,-2.15 -1.06,-3 -0.57,-0.85 -1.31,-1.52 -2.22,-2.01 -0.91,-0.49 -1.93,-0.73 -3.06,-0.73 -1.13,0 -2.18,0.24 -3.09,0.73 -0.91,0.49 -1.66,1.16 -2.22,2.02 -0.56,0.86 -0.92,1.86 -1.05,2.99 z"
             id="path63" /><path
             class="cls-10"
             d="m 510.06,297.66 1.02,-3.77 c 0.46,0.46 1.02,0.87 1.67,1.23 0.65,0.36 1.34,0.63 2.07,0.83 0.73,0.2 1.45,0.3 2.16,0.3 1.12,0 2.02,-0.24 2.7,-0.72 0.68,-0.48 1.02,-1.11 1.02,-1.9 0,-0.59 -0.19,-1.08 -0.56,-1.46 -0.37,-0.38 -0.87,-0.73 -1.49,-1.01 -0.62,-0.28 -1.29,-0.57 -2,-0.84 -0.91,-0.34 -1.83,-0.74 -2.73,-1.19 -0.9,-0.45 -1.67,-1.05 -2.28,-1.8 -0.61,-0.75 -0.92,-1.74 -0.92,-2.97 0,-1.23 0.3,-2.19 0.9,-3.06 0.6,-0.87 1.44,-1.54 2.52,-2.02 1.08,-0.48 2.32,-0.72 3.73,-0.72 2.18,0 4.35,0.55 6.49,1.64 l -1.23,3.58 c -0.44,-0.31 -0.96,-0.59 -1.56,-0.84 -0.6,-0.25 -1.22,-0.44 -1.84,-0.58 -0.62,-0.14 -1.21,-0.22 -1.74,-0.22 -0.89,0 -1.6,0.2 -2.14,0.59 -0.54,0.39 -0.81,0.93 -0.81,1.6 0,0.41 0.13,0.78 0.39,1.12 0.26,0.34 0.67,0.66 1.24,0.98 0.57,0.32 1.33,0.68 2.3,1.08 0.93,0.37 1.86,0.79 2.79,1.27 0.93,0.48 1.7,1.1 2.32,1.86 0.62,0.76 0.93,1.77 0.93,3.01 0,1.24 -0.33,2.31 -0.98,3.25 -0.65,0.94 -1.57,1.66 -2.73,2.18 -1.16,0.52 -2.52,0.78 -4.07,0.78 -2.55,0 -4.94,-0.73 -7.17,-2.19 z"
             id="path64" /><path
             class="cls-10"
             d="m 541.13,298.93 c -1.43,0.61 -2.82,0.92 -4.16,0.92 -1.34,0 -2.51,-0.29 -3.51,-0.86 -1,-0.57 -1.79,-1.38 -2.36,-2.43 -0.57,-1.05 -0.85,-2.25 -0.85,-3.61 v -10.24 h -3.58 v -3.75 h 3.79 v -5.12 h 3.99 v 5.12 h 5.98 v 3.75 h -5.98 v 9.46 c 0,1.2 0.32,2.15 0.97,2.86 0.65,0.71 1.48,1.05 2.51,1.05 0.86,0 1.71,-0.26 2.56,-0.78 l 0.63,3.62 z"
             id="path65" /><path
             class="cls-10"
             d="m 545.98,273.03 c -0.64,0 -1.18,-0.23 -1.62,-0.68 -0.44,-0.45 -0.66,-1 -0.66,-1.64 0,-0.64 0.22,-1.17 0.66,-1.62 0.44,-0.45 0.98,-0.68 1.62,-0.68 0.64,0 1.2,0.23 1.65,0.68 0.45,0.45 0.67,0.99 0.67,1.62 0,0.63 -0.22,1.19 -0.67,1.64 -0.45,0.45 -0.99,0.68 -1.65,0.68 z m 2.09,26.42 h -4.2 v -20.48 h 4.2 z"
             id="path66" /><path
             class="cls-10"
             d="m 565.91,298.93 c -1.43,0.61 -2.82,0.92 -4.16,0.92 -1.34,0 -2.51,-0.29 -3.51,-0.86 -1,-0.57 -1.79,-1.38 -2.36,-2.43 -0.57,-1.04 -0.85,-2.25 -0.85,-3.61 v -10.24 h -3.58 v -3.75 h 3.79 v -5.12 h 3.99 v 5.12 h 5.98 v 3.75 h -5.98 v 9.46 c 0,1.2 0.32,2.15 0.97,2.86 0.65,0.7 1.48,1.05 2.51,1.05 0.86,0 1.71,-0.26 2.56,-0.78 l 0.63,3.62 z"
             id="path67" /><path
             class="cls-10"
             d="m 601.28,275.3 c -1.06,-1.04 -2.31,-1.83 -3.75,-2.39 -1.44,-0.56 -2.96,-0.83 -4.57,-0.83 -1.61,0 -3.17,0.29 -4.56,0.86 -1.39,0.57 -2.58,1.39 -3.58,2.46 -1,1.06 -1.78,2.33 -2.33,3.79 -0.55,1.46 -0.83,3.07 -0.83,4.83 0,1.76 0.27,3.38 0.82,4.85 0.55,1.47 1.32,2.75 2.32,3.83 1,1.08 2.19,1.91 3.56,2.5 1.37,0.59 2.88,0.88 4.52,0.88 1.47,0 2.83,-0.24 4.08,-0.72 1.25,-0.48 2.33,-1.16 3.28,-2.05 0.95,-0.89 1.71,-1.95 2.29,-3.19 0.58,-1.24 0.96,-2.61 1.13,-4.12 H 593.2 v -3.5 h 14.46 l 0.12,1.68 c 0,2.33 -0.36,4.47 -1.09,6.41 -0.72,1.94 -1.75,3.61 -3.08,5.03 -1.33,1.41 -2.91,2.51 -4.73,3.28 -1.82,0.77 -3.83,1.16 -6.03,1.16 -2.2,0 -4.36,-0.4 -6.28,-1.2 -1.92,-0.8 -3.59,-1.92 -5.02,-3.36 -1.43,-1.44 -2.53,-3.13 -3.32,-5.07 -0.79,-1.94 -1.18,-4.04 -1.18,-6.31 0,-2.27 0.4,-4.41 1.19,-6.36 0.79,-1.95 1.9,-3.64 3.33,-5.09 1.43,-1.45 3.1,-2.57 5.03,-3.37 1.93,-0.8 4.02,-1.2 6.29,-1.2 2.14,0 4.19,0.37 6.13,1.11 1.95,0.74 3.68,1.8 5.19,3.17 l -2.93,2.91 z"
             id="path68" /><path
             class="cls-10"
             d="m 615.72,299.45 h -4.2 v -20.48 h 3.67 l 0.16,3.89 c 0.71,-1.35 1.69,-2.41 2.94,-3.16 1.25,-0.76 2.69,-1.14 4.31,-1.14 0.4,0 0.8,0.02 1.2,0.07 0.4,0.05 0.81,0.12 1.22,0.22 l -0.53,3.79 c -0.79,-0.2 -1.57,-0.31 -2.33,-0.31 -1.27,0 -2.39,0.3 -3.36,0.91 -0.97,0.61 -1.72,1.44 -2.26,2.51 -0.54,1.07 -0.81,2.29 -0.81,3.69 v 10.01 z"
             id="path69" /><path
             class="cls-10"
             d="m 636.69,299.86 c -2.05,0 -3.89,-0.46 -5.53,-1.39 -1.64,-0.93 -2.93,-2.19 -3.87,-3.8 -0.94,-1.61 -1.41,-3.42 -1.41,-5.46 0,-2.04 0.47,-3.83 1.41,-5.44 0.94,-1.6 2.23,-2.87 3.87,-3.81 1.64,-0.94 3.48,-1.4 5.53,-1.4 2.05,0 3.9,0.47 5.53,1.4 1.63,0.93 2.9,2.2 3.84,3.81 0.94,1.6 1.4,3.42 1.4,5.44 0,2.02 -0.47,3.85 -1.4,5.46 -0.93,1.61 -2.22,2.87 -3.84,3.8 -1.62,0.93 -3.47,1.39 -5.53,1.39 z m -0.02,-3.77 c 1.24,0 2.35,-0.3 3.33,-0.91 0.98,-0.61 1.75,-1.43 2.31,-2.46 0.57,-1.03 0.85,-2.2 0.85,-3.51 0,-1.31 -0.28,-2.48 -0.85,-3.51 -0.57,-1.03 -1.34,-1.85 -2.31,-2.46 -0.97,-0.61 -2.09,-0.91 -3.33,-0.91 -1.24,0 -2.33,0.3 -3.32,0.91 -0.99,0.61 -1.76,1.43 -2.32,2.46 -0.56,1.03 -0.85,2.2 -0.85,3.51 0,1.31 0.28,2.48 0.85,3.51 0.57,1.03 1.34,1.85 2.32,2.46 0.98,0.61 2.09,0.91 3.32,0.91 z"
             id="path70" /><path
             class="cls-10"
             d="m 670.19,299.45 h -3.56 l -0.14,-3.3 c -0.75,1.2 -1.73,2.12 -2.94,2.75 -1.21,0.63 -2.64,0.95 -4.29,0.95 -2.68,0 -4.79,-0.82 -6.34,-2.45 -1.55,-1.63 -2.32,-3.87 -2.32,-6.71 v -11.73 h 4.2 v 11.12 c 0,1.82 0.49,3.26 1.47,4.34 0.98,1.08 2.31,1.62 3.97,1.62 1.66,0 3.11,-0.58 4.17,-1.73 1.06,-1.15 1.59,-2.67 1.59,-4.56 v -10.79 h 4.2 v 20.48 z"
             id="path71" /><path
             class="cls-10"
             d="m 679.45,309.69 h -4.2 v -30.72 h 3.71 l 0.23,2.93 c 0.93,-1.04 2.04,-1.85 3.35,-2.45 1.3,-0.59 2.73,-0.89 4.29,-0.89 1.97,0 3.72,0.46 5.27,1.39 1.55,0.93 2.77,2.19 3.67,3.8 0.9,1.61 1.34,3.42 1.34,5.46 0,2.04 -0.45,3.84 -1.34,5.45 -0.89,1.61 -2.12,2.88 -3.67,3.81 -1.55,0.93 -3.31,1.39 -5.27,1.39 -1.47,0 -2.84,-0.27 -4.1,-0.8 -1.26,-0.53 -2.35,-1.28 -3.28,-2.23 z m 6.7,-13.64 c 1.3,0 2.44,-0.29 3.44,-0.88 1,-0.59 1.78,-1.4 2.34,-2.43 0.56,-1.03 0.85,-2.22 0.85,-3.55 0,-1.33 -0.28,-2.52 -0.85,-3.55 -0.57,-1.03 -1.35,-1.84 -2.34,-2.43 -0.99,-0.59 -2.14,-0.88 -3.42,-0.88 -1.22,0 -2.31,0.27 -3.29,0.81 -0.98,0.54 -1.77,1.28 -2.38,2.22 -0.61,0.94 -0.96,2.01 -1.05,3.22 v 1.27 c 0.1,1.2 0.44,2.27 1.03,3.2 0.59,0.94 1.38,1.67 2.36,2.2 0.98,0.53 2.08,0.8 3.31,0.8 z"
             id="path72" /></g></g></g></g></svg>
